<svg width="89" height="89" viewBox="0 0 89 89" fill="none" xmlns="http://www.w3.org/2000/svg">
<circle cx="44.5" cy="44.5" r="44.5" fill="url(#paint0_linear_106_1428)"/>
<path d="M62.2966 40.3689L61.2897 37.8363L59.5043 33.3451C57.9715 29.4903 54.3156 27 50.1885 27H38.8115C34.6852 27 31.0285 29.4903 29.4957 33.3451L27.7103 37.8363L26.7034 40.3689C24.5426 41.1954 23 43.2828 23 45.747V50.0732C23 51.5261 23.5518 52.8374 24.4333 53.8523V58.7256C24.4333 60.3182 25.7171 61.6098 27.3 61.6098H30.1667C31.7496 61.6098 33.0333 60.3182 33.0333 58.7256V55.8415H55.9667V58.7256C55.9667 60.3182 57.2504 61.6098 58.8333 61.6098H61.7C63.2829 61.6098 64.5667 60.3182 64.5667 58.7256V53.8523C65.4482 52.8383 66 51.527 66 50.0732V45.747C66 43.2828 64.4574 41.1954 62.2966 40.3689ZM34.8187 35.4875C35.4718 33.8453 37.0529 32.7683 38.8115 32.7683H50.1885C51.9471 32.7683 53.5282 33.8453 54.1813 35.4875L55.9667 39.9787H33.0333L34.8187 35.4875ZM30.1667 50.0551C28.4467 50.0551 27.3 48.9051 27.3 47.18C27.3 45.4549 28.4467 44.3049 30.1667 44.3049C31.8867 44.3049 34.4667 46.8925 34.4667 48.6176C34.4667 50.3427 31.8867 50.0551 30.1667 50.0551ZM58.8333 50.0551C57.1133 50.0551 54.5333 50.3427 54.5333 48.6176C54.5333 46.8925 57.1133 44.3049 58.8333 44.3049C60.5533 44.3049 61.7 45.4549 61.7 47.18C61.7 48.9051 60.5533 50.0551 58.8333 50.0551Z" fill="white"/>
<defs>
<linearGradient id="paint0_linear_106_1428" x1="47.5297" y1="99.1867" x2="-14.8056" y2="88.9645" gradientUnits="userSpaceOnUse">
<stop stop-color="#DC772D"/>
<stop offset="1" stop-color="#FF9F0F" stop-opacity="0.9"/>
</linearGradient>
</defs>
</svg>
