<svg width="89" height="89" viewBox="0 0 89 89" fill="none" xmlns="http://www.w3.org/2000/svg">
<circle cx="44.5" cy="44.5" r="44.5" fill="url(#paint0_linear_106_1430)"/>
<path d="M46.3137 22C47.1643 22.1142 48.0201 22.1987 48.8643 22.3482C51.2294 22.7673 53.4884 23.4879 55.534 24.7802C55.6058 24.8262 55.6749 24.875 55.7844 24.9488C55.549 25.5294 55.3156 26.1081 55.0801 26.6858C54.27 28.6706 53.4599 30.6552 52.6498 32.6399C52.6016 32.7581 52.569 32.8826 52.5294 33.0042L52.541 32.9943C51.6112 33.2259 50.6899 33.5006 49.7502 33.6808C47.1054 34.1753 44.399 34.2539 41.7297 33.9138C40.2445 33.7331 38.7894 33.3087 37.3207 32.9941L37.3329 33.0042C36.6229 31.2426 35.9126 29.4812 35.2022 27.7198C34.8334 26.8067 34.4604 25.8954 34.0802 24.961C35.1001 24.2613 36.2112 23.7034 37.3828 23.3027C39.275 22.619 41.2546 22.2041 43.2633 22.0703C43.3603 22.0555 43.4557 22.032 43.5483 22H46.3137Z" fill="white"/>
<path d="M54.3495 35.3235C58.7694 40.5662 61.3395 46.6462 62.5335 53.3344C62.9049 55.415 63.0183 57.5213 62.6213 59.6175C61.9855 62.9755 59.8951 64.9298 56.5804 65.5709C55.253 65.8284 53.9051 65.967 52.5529 65.9852C49.0838 66.027 45.6136 65.9687 42.144 65.9522C40.014 65.9421 37.8805 66.0067 35.7555 65.8997C34.5355 65.8324 33.3281 65.6192 32.1593 65.2647C29.3001 64.4058 27.7219 62.3731 27.2208 59.489C26.7822 56.9648 27.0477 54.4587 27.5739 51.9816C28.7283 46.5534 30.8464 41.535 34.1397 37.034C34.571 36.4446 35.054 35.8926 35.5134 35.3228L35.5061 35.3275C37.3867 35.713 39.2542 36.1867 41.1513 36.4633C43.8873 36.8592 46.6685 36.8309 49.3958 36.3792C51.0626 36.1065 52.7044 35.683 54.3574 35.3272L54.3495 35.3235ZM46.1556 57.3754C46.2864 57.3247 46.3923 57.2826 46.4991 57.2425C47.4024 56.9077 48.1805 56.3047 48.728 55.5154C49.2756 54.726 49.566 53.7884 49.5602 52.8293C49.5441 50.9277 48.4802 49.5405 46.5176 48.7934C45.6572 48.4729 44.8147 48.1068 43.9936 47.6968C43.1824 47.2842 43.0709 46.6465 43.5896 45.8903C43.8868 45.4569 44.3188 45.2543 44.8288 45.2046C45.666 45.1318 46.506 45.3102 47.2403 45.7168C47.6417 45.9273 48.0424 46.1392 48.4674 46.363L49.7043 44.0801C48.6878 43.5093 47.7081 42.9346 46.5732 42.7313C46.2219 42.6682 46.129 42.5234 46.1516 42.1948C46.1786 41.8009 46.158 41.4036 46.158 41.0004H43.545C43.545 41.5138 43.5364 41.9983 43.5488 42.482C43.5545 42.7049 43.5087 42.8329 43.27 42.9309C41.9849 43.4582 41.1931 44.437 40.8162 45.7447C40.3477 47.3705 40.8903 48.81 42.3107 49.7373C42.7187 50.005 43.1484 50.2386 43.5954 50.4355C44.3315 50.7571 45.0893 51.0292 45.8349 51.3293C46.6892 51.6738 47.0721 52.34 46.918 53.197C46.7695 54.0221 46.0597 54.7837 45.2273 54.887C44.3047 55.0018 43.3855 54.9597 42.5657 54.418C42.128 54.1288 41.6815 53.8529 41.216 53.5567L39.7924 55.7237C40.9632 56.532 42.1068 57.313 43.5637 57.5039V59.2877H46.1557L46.1556 57.3754Z" fill="white"/>
<path d="M35.513 35.3234L30.9733 34.8623V32.4391C31.8021 32.4391 32.6374 32.372 33.4574 32.4544C34.7546 32.5849 36.0418 32.8157 37.3333 33.004L37.3217 32.9939C37.2854 33.0962 37.2376 33.1941 37.179 33.2857C36.6249 33.9695 36.0646 34.6478 35.5061 35.3278L35.513 35.3234Z" fill="white"/>
<path d="M52.5294 33.0042C53.4919 32.847 54.4496 32.6463 55.4179 32.5437C56.558 32.4229 57.7074 32.3869 58.8915 32.3117V34.8648L54.3495 35.3235L54.3565 35.3279C53.861 34.7252 53.3612 34.126 52.8728 33.5176C52.7522 33.3497 52.6415 33.175 52.5413 32.9944L52.5294 33.0042Z" fill="white"/>
<defs>
<linearGradient id="paint0_linear_106_1430" x1="47.5297" y1="99.1867" x2="-14.8056" y2="88.9645" gradientUnits="userSpaceOnUse">
<stop stop-color="#DC772D"/>
<stop offset="1" stop-color="#FF9F0F" stop-opacity="0.9"/>
</linearGradient>
</defs>
</svg>
