<svg width="89" height="89" viewBox="0 0 89 89" fill="none" xmlns="http://www.w3.org/2000/svg">
<circle cx="44.5" cy="44.5" r="44.5" fill="url(#paint0_linear_106_1429)"/>
<g clip-path="url(#clip0_106_1429)">
<path d="M63.9981 36.5632C63.9484 38.4713 63.9817 40.3855 63.8349 42.2861C63.4451 47.4798 61.5532 52.4474 58.3906 56.5819C55.4058 60.5739 51.3831 63.6677 46.7618 65.5252C46.0627 65.8333 45.308 65.9949 44.5442 66C43.7805 66.005 43.0238 65.8534 42.3207 65.5546C33.8947 62.0106 28.4256 55.8292 25.9132 47.0103C25.2721 44.6652 24.964 42.2413 24.9982 39.8101C25.0086 37.2284 24.9931 34.6461 25.0021 32.0644C24.9492 30.6687 25.4002 29.3007 26.2724 28.211C27.1447 27.1213 28.3798 26.3829 29.7514 26.1311C34.1821 25.1284 38.6208 24.1442 43.0534 23.1395C44.2381 22.9198 45.4573 22.974 46.6179 23.298C50.8266 24.2578 55.0451 25.1737 59.2518 26.14C62.189 26.8156 63.9374 29.0513 63.9509 32.0679C63.9573 33.5636 63.9509 35.062 63.9509 36.5592L63.9981 36.5632ZM42.8762 45.3435C41.889 44.2919 40.9446 43.2758 39.9888 42.2706C39.7563 42.0042 39.4536 41.8087 39.1154 41.7064C38.7772 41.6042 38.417 41.5992 38.0762 41.6923C37.7337 41.7766 37.4205 41.9526 37.1701 42.2013C36.9198 42.4501 36.7417 42.7623 36.6547 43.1046C36.5678 43.4469 36.5754 43.8064 36.6767 44.1448C36.778 44.4831 36.9692 44.7875 37.2298 45.0254C38.5949 46.398 39.9843 47.7457 41.3618 49.1039C42.4849 50.2108 43.4871 50.2153 44.6052 49.1129C47.4163 46.3414 50.2265 43.5688 53.0359 40.7953C53.2151 40.5876 53.4126 40.3964 53.6259 40.2239C53.9126 40.0315 54.1308 39.7527 54.249 39.4279C54.3672 39.1031 54.3793 38.7491 54.2835 38.417C54.2301 38.0663 54.075 37.739 53.8376 37.4757C53.6002 37.2125 53.2908 37.0249 52.9478 36.9362C52.6132 36.8231 52.2535 36.8073 51.9103 36.8908C51.5672 36.9743 51.2548 37.1536 51.0093 37.4079C49.6973 38.6823 48.3884 39.9596 47.0824 41.24C45.7318 42.5598 44.3797 43.8786 42.8782 45.342L42.8762 45.3435Z" fill="white"/>
</g>
<defs>
<linearGradient id="paint0_linear_106_1429" x1="47.5297" y1="99.1867" x2="-14.8056" y2="88.9645" gradientUnits="userSpaceOnUse">
<stop stop-color="#DC772D"/>
<stop offset="1" stop-color="#FF9F0F" stop-opacity="0.9"/>
</linearGradient>
<clipPath id="clip0_106_1429">
<rect width="39" height="43" fill="white" transform="translate(25 23)"/>
</clipPath>
</defs>
</svg>
