<svg width="19" height="19" viewBox="0 0 19 19" fill="none" xmlns="http://www.w3.org/2000/svg">
<path d="M18.6531 5.324C18.643 4.56662 18.5013 3.81678 18.2341 3.108C18.0025 2.51015 17.6487 1.9672 17.1953 1.51383C16.7419 1.06046 16.199 0.706651 15.6011 0.475C14.9015 0.212357 14.1623 0.0703413 13.4151 0.0550001C12.4531 0.0120001 12.1481 0 9.70613 0C7.26413 0 6.95113 6.70552e-08 5.99613 0.0550001C5.24928 0.0704541 4.51047 0.212468 3.81113 0.475C3.21318 0.706489 2.67015 1.06024 2.21676 1.51363C1.76337 1.96702 1.40961 2.51006 1.17812 3.108C0.914956 3.80713 0.773248 4.54611 0.759125 5.293C0.716125 6.256 0.703125 6.561 0.703125 9.003C0.703125 11.445 0.703125 11.757 0.759125 12.713C0.774125 13.461 0.915125 14.199 1.17812 14.9C1.41 15.4978 1.76402 16.0406 2.21756 16.4938C2.6711 16.947 3.21419 17.3006 3.81212 17.532C4.50956 17.8052 5.2485 17.9574 5.99713 17.982C6.96013 18.025 7.26513 18.038 9.70713 18.038C12.1491 18.038 12.4621 18.038 13.4171 17.982C14.1643 17.9673 14.9035 17.8256 15.6031 17.563C16.2008 17.3311 16.7436 16.9772 17.197 16.5238C17.6503 16.0705 18.0042 15.5277 18.2361 14.93C18.4991 14.23 18.6401 13.492 18.6551 12.743C18.6981 11.781 18.7111 11.476 18.7111 9.033C18.7091 6.591 18.7091 6.281 18.6531 5.324ZM9.70013 13.621C7.14613 13.621 5.07712 11.552 5.07712 8.998C5.07712 6.444 7.14613 4.375 9.70013 4.375C10.9262 4.375 12.1021 4.86207 12.9691 5.72905C13.8361 6.59603 14.3231 7.7719 14.3231 8.998C14.3231 10.2241 13.8361 11.4 12.9691 12.267C12.1021 13.1339 10.9262 13.621 9.70013 13.621ZM14.5071 5.282C14.3655 5.28213 14.2253 5.25434 14.0944 5.20021C13.9636 5.14608 13.8447 5.06668 13.7446 4.96655C13.6444 4.86643 13.565 4.74754 13.5109 4.61669C13.4568 4.48584 13.429 4.3456 13.4291 4.204C13.4291 4.0625 13.457 3.92239 13.5111 3.79166C13.5653 3.66093 13.6447 3.54215 13.7447 3.44209C13.8448 3.34204 13.9636 3.26267 14.0943 3.20852C14.225 3.15437 14.3651 3.1265 14.5066 3.1265C14.6481 3.1265 14.7882 3.15437 14.919 3.20852C15.0497 3.26267 15.1685 3.34204 15.2685 3.44209C15.3686 3.54215 15.448 3.66093 15.5021 3.79166C15.5563 3.92239 15.5841 4.0625 15.5841 4.204C15.5841 4.8 15.1021 5.282 14.5071 5.282Z" fill="white"/>
</svg>
