<?xml version="1.0" encoding="utf-8"?>
<!-- Generator: Adobe Illustrator 25.4.1, SVG Export Plug-In . SVG Version: 6.00 Build 0)  -->
<svg version="1.1" id="Capa_1" xmlns="http://www.w3.org/2000/svg" xmlns:xlink="http://www.w3.org/1999/xlink" x="0px" y="0px"
	 viewBox="0 0 142 142" style="enable-background:new 0 0 142 142;" xml:space="preserve">
<style type="text/css">
	.st0{fill:#013398;}
	.st1{fill:#FAFB02;}
	.st2{fill:#FBFC02;}
	.st3{fill:#F1F407;}
</style>
<path class="st0" d="M3.1,71.2C3.1,56.6,3.4,42,3,27.3C2.6,13.7,13.6,3.2,27,3.3c29.2,0.3,58.4,0.1,87.6,0.1
	c14.5,0,24.1,9.5,24.1,24c0,29.2,0,58.4,0,87.6c0,14.5-9.6,24-24.1,24c-29.3,0-58.6-0.2-87.8,0.1C13.1,139.3,2.6,128.5,3,115.4
	C3.4,100.7,3.1,86,3.1,71.2z M77.9,113.1c1.4,3.4,1.4,3.4,5.1,3.4c1.1,0,2.1-0.1,3.2,0c1.1,0.1,1.6-0.2,1.6-1.5
	c-0.1-6.5,0.1-13-0.1-19.4c-0.3-8.3-4.4-12.7-12.7-13.8c-3.8-0.5-7.6-0.1-11.3,0.8c-5.7,1.4-5.9,1.8-4.1,7.3
	c0.4,1.1,0.7,1.4,1.9,0.8c3.3-1.6,6.9-2.3,10.7-1.9c1.9,0.2,3.7,0.8,4.9,2.5c0.4,0.6,0.9,1.4,0.6,2.1c-0.4,0.7-1.2,0.3-1.9,0.4
	c-0.8,0.1-1.7,0-2.5,0.1c-4.5,0.4-8.9,1.2-12.8,3.8c-3.9,2.7-5.5,6.5-4.6,11.1c0.9,4.5,3.9,7.2,8.3,8.1
	C69.3,118,74,116.9,77.9,113.1z M117.5,112c1.2,1.3,0.3,3.8,2.2,4.3c1.6,0.4,3.5,0.1,5.2,0.1c0.4,0,0.8,0,1.1,0
	c1,0.1,1.3-0.3,1.3-1.3c0-10.4,0-20.9,0-31.3c0-1-0.4-1.3-1.3-1.3c-2.3,0.1-4.6,0.2-6.9,0c-2-0.2-2.4,0.6-2.3,2.4
	c0.1,5.9,0.1,11.9,0,17.8c-0.1,3.2-2.8,5.8-6,6.2c-3.4,0.3-5.7-1.5-6.5-5.1c-0.3-1.3-0.4-2.6-0.4-3.9c0-5.3-0.1-10.5,0-15.8
	c0-1.2-0.2-1.8-1.6-1.7c-2.4,0.1-4.9,0.1-7.3,0c-1,0-1.4,0.3-1.4,1.3c0.1,7.2-0.2,14.5,0.2,21.7c0.5,8.1,6.4,12.6,14.4,11.6
	C112,116.7,115.1,115,117.5,112z M34.8,99.1C34.8,99.1,34.8,99.1,34.8,99.1c0,2.3,0,4.6,0.1,6.9c0.4,8.5,6.3,12.9,14.6,11.1
	c1.7-0.4,2.4-1.1,2.3-2.9c-0.1-1.4-0.1-2.7,0-4.1c0-1-0.1-1.4-1.4-1.4c-3.9,0.1-5.2-1.1-5.3-5.1c-0.1-3,0-5.9-0.1-8.9
	c0-4.3,0-4.4,4.2-4.3c1.9,0.1,2.6-0.4,2.4-2.4c-0.2-1.7,0.7-3.9-0.4-5.1c-1-1.1-3.2-0.3-4.8-0.3c-1.1,0-1.4-0.4-1.4-1.5
	c0.1-2.8,0-5.6,0-8.5c0-1.1-0.3-1.5-1.4-1.5c-2.4,0.1-4.7,0.1-7.1,0c-1.5-0.1-1.8,0.5-1.7,1.9c0.1,2.6,0,5.2,0.1,7.8
	c0,1.2-0.2,1.7-1.6,1.7c-3.3,0-3.3,0.1-3.3,3.4c0,0.4,0,0.8,0,1.1c0,3.1,0,3.2,3.1,3.1c1.4,0,1.9,0.3,1.8,1.8
	C34.7,94.4,34.8,96.7,34.8,99.1z M24.8,93.8c0-6.9-0.1-13.7,0-20.5c0-1.8-0.5-2.2-2.2-2.1c-2.3,0.1-4.6,0.1-6.8,0
	c-1.2,0-1.6,0.3-1.6,1.5c0,14.1,0,28.2,0,42.2c0,1.3,0.5,1.5,1.6,1.5c2.3-0.1,4.6-0.1,6.8,0c1.7,0.1,2.2-0.3,2.2-2.1
	C24.8,107.5,24.8,100.7,24.8,93.8z M123,71.9c-0.2-0.2-0.4-0.5-0.6-0.7c-2.7,0-5.5,0-8.2,0c-0.5,0-1.1-0.1-1.5,0.4
	c-2,2.8-3.9,5.6-6.1,8.8c2.1,0,3.7,0,5.3,0c0.9,0,1.8,0.3,2.6-0.5C117.3,77.2,120.2,74.5,123,71.9z"/>
<path class="st1" d="M77.9,113.1c-4,3.8-8.6,4.9-13.7,3.9c-4.4-0.9-7.4-3.6-8.3-8.1c-0.9-4.6,0.7-8.4,4.6-11.1
	c3.8-2.6,8.3-3.4,12.8-3.8c0.8-0.1,1.7,0,2.5-0.1c0.6-0.1,1.5,0.4,1.9-0.4c0.4-0.7-0.1-1.5-0.6-2.1c-1.2-1.7-3-2.3-4.9-2.5
	c-3.7-0.4-7.3,0.3-10.7,1.9c-1.2,0.6-1.5,0.3-1.9-0.8c-1.8-5.5-1.7-5.9,4.1-7.3c3.7-0.9,7.5-1.4,11.3-0.8
	c8.2,1.1,12.4,5.5,12.7,13.8c0.2,6.5,0,12.9,0.1,19.4c0,1.3-0.5,1.6-1.6,1.5c-1.1-0.1-2.1,0-3.2,0C79.3,116.4,79.3,116.4,77.9,113.1
	z M78.1,102.8c-0.4-0.6,0.8-2.3-0.9-2.4c-3.3-0.1-6.6,0.1-9.4,2.1c-1.6,1.2-2.1,2.9-1.6,4.9c0.5,2,2,2.7,3.8,3
	C73.8,110.9,78.6,108.3,78.1,102.8z"/>
<path class="st2" d="M117.5,112c-2.4,3-5.5,4.7-9.2,5.1c-8,1-13.9-3.5-14.4-11.6c-0.4-7.2-0.2-14.5-0.2-21.7c0-1,0.4-1.3,1.4-1.3
	c2.4,0.1,4.9,0.1,7.3,0c1.4-0.1,1.6,0.5,1.6,1.7c-0.1,5.3,0,10.5,0,15.8c0,1.3,0.1,2.6,0.4,3.9c0.7,3.6,3.1,5.4,6.5,5.1
	c3.2-0.3,5.9-3,6-6.2c0.1-5.9,0.1-11.9,0-17.8c0-1.8,0.3-2.6,2.3-2.4c2.3,0.2,4.6,0.1,6.9,0c1,0,1.3,0.3,1.3,1.3
	c0,10.4,0,20.9,0,31.3c0,1-0.4,1.4-1.3,1.3c-0.4,0-0.8,0-1.1,0c-1.8,0-3.6,0.3-5.2-0.1C117.8,115.8,118.7,113.3,117.5,112z"/>
<path class="st2" d="M34.8,99.1c0-2.4-0.1-4.7,0-7.1c0.1-1.5-0.4-1.8-1.8-1.8c-3.1,0-3.1,0-3.1-3.1c0-0.4,0-0.8,0-1.1
	c0-3.3,0-3.4,3.3-3.4c1.4,0,1.6-0.5,1.6-1.7c-0.1-2.6,0-5.2-0.1-7.8c0-1.3,0.2-1.9,1.7-1.9c2.4,0.1,4.7,0.1,7.1,0
	c1.1,0,1.4,0.4,1.4,1.5c-0.1,2.8,0,5.6,0,8.5c0,1.1,0.3,1.4,1.4,1.5c1.6,0,3.8-0.8,4.8,0.3c1.1,1.2,0.1,3.4,0.4,5.1
	c0.3,1.9-0.5,2.4-2.4,2.4c-4.2-0.1-4.2,0-4.2,4.3c0,3-0.1,5.9,0.1,8.9c0.2,4,1.4,5.2,5.3,5.1c1.2,0,1.4,0.4,1.4,1.4
	c-0.1,1.4-0.1,2.8,0,4.1c0.2,1.8-0.5,2.5-2.3,2.9c-8.3,1.8-14.2-2.6-14.6-11.1C34.7,103.7,34.8,101.4,34.8,99.1
	C34.8,99.1,34.8,99.1,34.8,99.1z"/>
<path class="st2" d="M24.8,93.8c0,6.9-0.1,13.7,0,20.5c0,1.8-0.5,2.2-2.2,2.1c-2.3-0.1-4.6-0.1-6.8,0c-1.1,0-1.6-0.2-1.6-1.5
	c0-14.1,0-28.2,0-42.2c0-1.2,0.4-1.6,1.6-1.5c2.3,0.1,4.6,0.1,6.8,0c1.7-0.1,2.2,0.3,2.2,2.1C24.8,80.1,24.8,87,24.8,93.8z"/>
<path class="st3" d="M123,71.9c-2.8,2.7-5.6,5.3-8.4,8c-0.8,0.8-1.7,0.5-2.6,0.5c-1.6,0-3.2,0-5.3,0c2.2-3.1,4.1-5.9,6.1-8.8
	c0.3-0.5,0.9-0.4,1.5-0.4c2.7,0,5.5,0,8.2,0C122.6,71.4,122.8,71.7,123,71.9z"/>
<path class="st0" d="M78.1,102.8c0.5,5.5-4.3,8.1-7.9,7.6c-1.9-0.3-3.3-1-3.8-3c-0.5-2-0.1-3.7,1.6-4.9c2.8-2,6.1-2.3,9.4-2.1
	C79,100.5,77.7,102.2,78.1,102.8z"/>
</svg>
