<svg width="22" height="22" viewBox="0 0 22 22" fill="none" xmlns="http://www.w3.org/2000/svg">
<path d="M16.8471 22C15.6213 21.8699 14.5507 21.5508 13.5092 21.1238C11.3822 20.252 9.4951 18.9953 7.74758 17.5201C5.34285 15.4901 3.31461 13.1412 1.76873 10.3939C0.954739 8.94732 0.336864 7.42489 0.0395243 5.78073C-0.0480947 5.29617 -0.000727736 4.87894 0.290175 4.46243C1.29589 3.02246 2.39323 1.66338 3.6905 0.472901C3.83016 0.346784 3.97992 0.232295 4.13831 0.130588C4.42455 -0.0562988 4.63519 -0.0446938 4.89857 0.178968C5.03755 0.293666 5.16182 0.425043 5.26856 0.570116C6.27401 1.98491 7.20472 3.44599 7.9508 5.01601C8.35434 5.8653 8.31407 6.0099 7.60924 6.63618C7.13844 7.05459 6.66889 7.47451 6.19467 7.88919C6.08006 7.98942 6.06579 8.08808 6.10882 8.23295C6.7586 10.4218 7.98987 12.2296 9.72984 13.692C10.9193 14.6918 12.2496 15.4475 13.76 15.8654C13.9065 15.9059 14.003 15.8916 14.1029 15.7777C14.4965 15.3287 14.8998 14.8883 15.2923 14.4382C15.9742 13.6564 16.1248 13.6107 17.0495 14.058C18.5638 14.8011 20.0109 15.6733 21.3749 16.6648C22.1608 17.2285 22.1925 17.5573 21.5426 18.2646C20.2965 19.612 18.8826 20.7945 17.3355 21.7835C17.1637 21.894 16.9575 21.9521 16.8471 22Z" fill="white"/>
<path d="M21.9847 10.1984H20.4377C20.3827 7.83019 19.5634 5.78223 17.8874 4.1087C16.2115 2.43517 14.1607 1.61578 11.7874 1.56327V0.0366429C16.9029 -0.169779 22.0465 4.30804 21.9847 10.1984Z" fill="white"/>
<path d="M18.0466 10.1982H16.5057C16.4649 8.91996 16.0263 7.79674 15.1096 6.88249C14.1979 5.97336 13.0839 5.52951 11.7896 5.49129V3.95116C15.1431 3.85473 18.1342 6.79557 18.0466 10.1982Z" fill="white"/>
</svg>
