<svg width="21" height="21" viewBox="0 0 21 21" fill="none" xmlns="http://www.w3.org/2000/svg">
<g clip-path="url(#clip0_61_9078)">
<path d="M15.0813 20.9998C13.9112 20.8756 12.8893 20.571 11.8952 20.1634C9.86482 19.3312 8.06351 18.1316 6.39542 16.7235C4.1 14.7858 2.16394 12.5437 0.688333 9.92122C-0.0886579 8.54039 -0.678448 7.08716 -0.962272 5.51773C-1.04591 5.0552 -1.00069 4.65693 -0.723014 4.25935C0.236986 2.88483 1.28445 1.58753 2.52275 0.451162C2.65606 0.330777 2.79902 0.221492 2.95021 0.124408C3.22344 -0.0539839 3.4245 -0.0429064 3.67591 0.170589C3.80857 0.280074 3.92719 0.405479 4.02908 0.543958C4.98883 1.89445 5.87724 3.28911 6.5894 4.78777C6.97461 5.59845 6.93616 5.73648 6.26337 6.33429C5.81397 6.73369 5.36576 7.13452 4.9131 7.53035C4.80369 7.62603 4.79008 7.7202 4.83115 7.85848C5.4514 9.94788 6.6267 11.6735 8.28758 13.0694C9.42294 14.0238 10.6928 14.7451 12.1345 15.144C12.2744 15.1826 12.3665 15.169 12.4619 15.0603C12.8375 14.6317 13.2226 14.2113 13.5972 13.7817C14.2481 13.0354 14.3919 12.9918 15.2745 13.4188C16.72 14.1281 18.1014 14.9606 19.4033 15.907C20.1535 16.4452 20.1838 16.759 19.5634 17.4341C18.374 18.7203 17.0243 19.8491 15.5475 20.7931C15.3836 20.8986 15.1867 20.9541 15.0813 20.9998Z" fill="#013398"/>
<path d="M19.9855 9.73461H18.5088C18.4563 7.47401 17.6742 5.51914 16.0744 3.92168C14.4747 2.32422 12.5171 1.54207 10.2516 1.49195V0.0347137C15.1346 -0.162325 20.0444 4.11196 19.9855 9.73461Z" fill="#013398"/>
<path d="M16.2264 9.73444H14.7555C14.7165 8.51429 14.2979 7.44212 13.4229 6.56943C12.5526 5.70162 11.4892 5.27794 10.2537 5.24146V3.77134C13.4549 3.67929 16.31 6.48646 16.2264 9.73444Z" fill="#013398"/>
</g>
<defs>
<clipPath id="clip0_61_9078">
<rect width="21" height="21" fill="white"/>
</clipPath>
</defs>
</svg>
