<svg width="24" height="19" viewBox="0 0 24 19" fill="none" xmlns="http://www.w3.org/2000/svg">
<path d="M23.6072 2.63215C22.9667 3.55 22.1809 4.33242 21.2499 4.97941C21.2591 5.15293 21.2637 5.34905 21.2637 5.56777C21.2637 6.78305 21.0798 7.9998 20.712 9.21801C20.3441 10.4362 19.7823 11.6023 19.0264 12.7162C18.2706 13.8301 17.3702 14.8169 16.3253 15.6766C15.2805 16.5363 14.0245 17.2218 12.5574 17.7331C11.0903 18.2444 9.51791 18.5 7.84033 18.5C5.22219 18.5 2.81114 17.8191 0.607178 16.4571C0.998355 16.4991 1.37353 16.5201 1.73269 16.5201C3.91994 16.5201 5.8735 15.871 7.59338 14.5729C6.57356 14.5549 5.66024 14.2524 4.85341 13.6655C4.04658 13.0786 3.49134 12.3287 3.18769 11.4157C3.48783 11.4708 3.78405 11.4983 4.07637 11.4983C4.49714 11.4983 4.91118 11.4455 5.31847 11.3397C4.23013 11.1297 3.32727 10.6075 2.60987 9.77301C1.8925 8.93854 1.53381 7.9754 1.53381 6.88359V6.82732C2.20183 7.18368 2.91439 7.37323 3.67147 7.39598C3.02675 6.98188 2.51558 6.44189 2.13797 5.776C1.76033 5.11011 1.57151 4.38949 1.57151 3.61416C1.57151 2.79645 1.7842 2.035 2.20956 1.32982C3.39311 2.7291 4.82722 3.84745 6.5119 4.68487C8.1966 5.52231 10.004 5.98739 11.934 6.08013C11.8517 5.74961 11.8104 5.4047 11.8103 5.0454C11.8103 3.79084 12.2711 2.71964 13.1927 1.83178C14.1144 0.943928 15.2263 0.5 16.5285 0.5C17.8918 0.5 19.0401 0.978266 19.9735 1.9348C21.0399 1.73129 22.0384 1.3632 22.969 0.830516C22.6105 1.9176 21.9196 2.7562 20.8964 3.34634C21.8369 3.23868 22.7404 3.00061 23.6072 2.63215H23.6072Z" fill="white"/>
</svg>
