<svg width="20" height="23" viewBox="0 0 20 23" fill="none" xmlns="http://www.w3.org/2000/svg">
<path d="M12.8988 15.9665V18.6747C12.8988 19.248 12.7296 19.5346 12.391 19.5346C12.1914 19.5346 11.9961 19.4405 11.8051 19.2522V15.389C11.9961 15.2007 12.1914 15.1066 12.391 15.1066C12.7296 15.1066 12.8988 15.3932 12.8988 15.9665ZM17.2999 15.9794V16.5698H16.128V15.9794C16.128 15.3975 16.3233 15.1066 16.7139 15.1066C17.1046 15.1066 17.2999 15.3975 17.2999 15.9794ZM4.72176 13.1814H6.11499V11.9749H2.05249V13.1814H3.41968V20.4844H4.72176V13.1814ZM8.47176 20.4844H9.63062V14.144H8.47176V18.9955C8.21134 19.3549 7.96395 19.5346 7.72957 19.5346C7.57332 19.5346 7.48218 19.4448 7.45614 19.2651C7.44746 19.2394 7.44312 19.0897 7.44312 18.8158V14.144H6.28426V19.1624C6.28426 19.5817 6.31898 19.894 6.38843 20.0993C6.49259 20.4159 6.74433 20.5742 7.14364 20.5742C7.5603 20.5742 8.00301 20.3132 8.47176 19.7913V20.4844ZM14.0577 18.5848V16.0564C14.0577 15.4317 14.0186 15.0082 13.9405 14.7857C13.7929 14.3065 13.4848 14.067 13.016 14.067C12.582 14.067 12.1784 14.298 11.8051 14.76V11.9749H10.6462V20.4844H11.8051V19.8683C12.1957 20.3389 12.5994 20.5742 13.016 20.5742C13.4848 20.5742 13.7929 20.3389 13.9405 19.8683C14.0186 19.6373 14.0577 19.2094 14.0577 18.5848ZM18.4587 18.4565V18.2896H17.2738C17.2738 18.726 17.2652 18.987 17.2478 19.0725C17.187 19.3806 17.0134 19.5346 16.727 19.5346C16.3277 19.5346 16.128 19.2394 16.128 18.649V17.5324H18.4587V16.2104C18.4587 15.5344 18.3416 15.0381 18.1072 14.7215C17.7686 14.2852 17.3086 14.067 16.727 14.067C16.1367 14.067 15.6723 14.2852 15.3337 14.7215C15.0907 15.0381 14.9692 15.5344 14.9692 16.2104V18.4308C14.9692 19.1068 15.095 19.6031 15.3468 19.9196C15.6853 20.356 16.1541 20.5742 16.753 20.5742C17.378 20.5742 17.8468 20.3475 18.1593 19.894C18.3155 19.6629 18.4067 19.4319 18.4327 19.2009C18.4501 19.1239 18.4587 18.8757 18.4587 18.4565ZM10.5421 6.73828V4.04297C10.5421 3.45257 10.3554 3.15737 9.98218 3.15737C9.60891 3.15737 9.42228 3.45257 9.42228 4.04297V6.73828C9.42228 7.33724 9.60891 7.63672 9.98218 7.63672C10.3554 7.63672 10.5421 7.33724 10.5421 6.73828ZM19.9041 16.3772C19.9041 18.3795 19.7912 19.8769 19.5655 20.8694C19.444 21.3743 19.1922 21.7978 18.8103 22.1401C18.4284 22.4823 17.9856 22.6791 17.4822 22.7305C15.885 22.9102 13.4761 23 10.2556 23C7.03513 23 4.62628 22.9102 3.02905 22.7305C2.52558 22.6791 2.0807 22.4823 1.69442 22.1401C1.30813 21.7978 1.05857 21.3743 0.945719 20.8694C0.720025 19.9111 0.607178 18.4137 0.607178 16.3772C0.607178 14.375 0.720025 12.8776 0.945719 11.885C1.06725 11.3802 1.31898 10.9567 1.70093 10.6144C2.08287 10.2721 2.52992 10.0711 3.04207 10.0112C4.63062 9.84003 7.03513 9.75446 10.2556 9.75446C13.4761 9.75446 15.885 9.84003 17.4822 10.0112C17.9856 10.0711 18.4305 10.2721 18.8168 10.6144C19.2031 10.9567 19.4527 11.3802 19.5655 11.885C19.7912 12.8434 19.9041 14.3408 19.9041 16.3772ZM6.90926 0H8.23739L6.66187 5.12109V8.59933H5.35978V5.12109C5.23825 4.48791 4.9735 3.58092 4.56551 2.40011C4.24433 1.51879 3.96221 0.71875 3.71916 0H5.09937L6.02384 3.37556L6.90926 0ZM11.727 4.274V6.52009C11.727 7.21317 11.6054 7.71801 11.3624 8.0346C11.0325 8.47098 10.5725 8.68917 9.98218 8.68917C9.40058 8.68917 8.94485 8.47098 8.61499 8.0346C8.37193 7.70945 8.25041 7.20461 8.25041 6.52009V4.274C8.25041 3.58947 8.37193 3.08891 8.61499 2.77232C8.94485 2.33594 9.40058 2.11775 9.98218 2.11775C10.5725 2.11775 11.0325 2.33594 11.3624 2.77232C11.6054 3.08891 11.727 3.58947 11.727 4.274ZM16.0889 2.19475V8.59933H14.9041V7.89342C14.444 8.42392 13.9969 8.68917 13.5629 8.68917C13.1636 8.68917 12.9075 8.53088 12.7947 8.21429C12.7252 8.00893 12.6905 7.68806 12.6905 7.25167V2.19475H13.8754V6.90513C13.8754 7.1875 13.8797 7.33724 13.8884 7.35435C13.9145 7.5426 14.0056 7.63672 14.1619 7.63672C14.3962 7.63672 14.6436 7.45275 14.9041 7.08482V2.19475H16.0889Z" fill="white"/>
</svg>
